HIERARCHY
ROOT Hips
{
	OFFSET 0.00000 0.00000 0.00000
	CHANNELS 6 Xposition Yposition Zposition Zrotation Yrotation Xrotation 
	JOINT LHipJoint
	{
		OFFSET 0 0 0
		CHANNELS 3 Zrotation Yrotation Xrotation
		JOINT LeftHip
		{
			OFFSET 1.58895 -1.83665 0.71753
			CHANNELS 3 Zrotation Yrotation Xrotation
			JOINT LeftKnee
			{
				OFFSET 2.50528 -6.88321 0.00000
				CHANNELS 3 Zrotation Yrotation Xrotation
				JOINT LeftAnkle
				{
					OFFSET 2.63244 -7.23257 0.00000
					CHANNELS 3 Zrotation Yrotation Xrotation
					JOINT LeftToe
					{
						OFFSET 0.23691 -0.65090 1.72750
						CHANNELS 3 Zrotation Yrotation Xrotation
						End Site
						{
							OFFSET 0.00000 -0.00000 0.92561
						}
					}
				}
			}
		}
	}
	JOINT RHipJoint
	{
		OFFSET 0 0 0
		CHANNELS 3 Zrotation Yrotation Xrotation
		JOINT RightHip
		{
			OFFSET -1.51435 -1.83665 0.71753
			CHANNELS 3 Zrotation Yrotation Xrotation
			JOINT RightKnee
			{
				OFFSET -2.54551 -6.99375 0.00000
				CHANNELS 3 Zrotation Yrotation Xrotation
				JOINT RightAnkle
				{
					OFFSET -2.66027 -7.30903 0.00000
					CHANNELS 3 Zrotation Yrotation Xrotation
					JOINT RightToe
					{
						OFFSET -0.22981 -0.63138 2.03959
						CHANNELS 3 Zrotation Yrotation Xrotation
						End Site
						{
							OFFSET -0.00000 -0.00000 1.07060
						}
					}
				}
			}
		}
	}
	JOINT lowerback
	{
		OFFSET 0 0 0
		CHANNELS 3 Zrotation Yrotation Xrotation
		JOINT Chest
		{
			OFFSET -0.02651 1.86275 -0.11152
			CHANNELS 3 Zrotation Yrotation Xrotation
			JOINT Chest2
			{
				OFFSET 0.01019 1.86224 0.04087
				CHANNELS 3 Zrotation Yrotation Xrotation
				JOINT lowerneck
				{
					OFFSET 0 0 0
					CHANNELS 3 Zrotation Yrotation Xrotation
					JOINT Neck
					{
						OFFSET -0.01926 1.80512 0.08867
						CHANNELS 3 Zrotation Yrotation Xrotation
						JOINT Head
						{
							OFFSET 0.05516 1.76451 -0.38475
							CHANNELS 3 Zrotation Yrotation Xrotation
							End Site
							{
								OFFSET 0.01592 1.82587 -0.14001
							}
						}
					}
				}
				JOINT LeftCollar
				{
					OFFSET 0 0 0
					CHANNELS 3 Zrotation Yrotation Xrotation
					JOINT LeftShoulder
					{
						OFFSET 3.47116 1.51376 0.14491
CHANNELS 3 Zrotation Xrotation Yrotation
						JOINT LeftElbow
						{
OFFSET 0 -4.780950 0.000000
CHANNELS 3 Zrotation Xrotation Yrotation
							JOINT LeftWrist
							{
OFFSET 0 -3.586150 -0.000000
CHANNELS 3 Zrotation Xrotation Yrotation
								JOINT lhand
								{
									OFFSET 0 0 0
CHANNELS 3 Zrotation Xrotation Yrotation
									JOINT LFingers
									{
OFFSET 0 -0.659810 0.000000
CHANNELS 3 Zrotation Xrotation Yrotation
										End Site
										{
OFFSET 0 -0.531960 0.000000
										}
									}
								}
								JOINT LThumb
								{
OFFSET 0 0.000000 0.000000
CHANNELS 3 Zrotation Xrotation Yrotation
									End Site
									{
OFFSET 0 -0.540080 0.540080
									}
								}
							}
						}
					}
				}
				JOINT RightCollar
				{
					OFFSET 0 0 0
					CHANNELS 3 Zrotation Yrotation Xrotation
					JOINT RightShoulder
					{
						OFFSET -3.31725 1.61216 0.35156
CHANNELS 3 Zrotation Xrotation Yrotation
						JOINT RightElbow
						{
OFFSET 0 -4.489130 0.000000
CHANNELS 3 Zrotation Xrotation Yrotation
							JOINT RightWrist
							{
OFFSET 0 -3.705100 0.000000
CHANNELS 3 Zrotation Xrotation Yrotation
								JOINT rhand
								{
									OFFSET 0 0 0
CHANNELS 3 Zrotation Xrotation Yrotation
									JOINT RFingers
									{
OFFSET 0 -0.449140 0.000000
CHANNELS 3 Zrotation Xrotation Yrotation
										End Site
										{
OFFSET 0 -0.362110 0.000000
										}
									}
								}
								JOINT RThumb
								{
OFFSET 0 0.000000 0.000000
CHANNELS 3 Zrotation Xrotation Yrotation
									End Site
									{
OFFSET 0 -0.367630 0.367630
									}
								}
							}
						}
					}
				}
			}
		}
	}
}
MOTION
Frames: 12
Frame Time: .0083333
-0.5593 18.6746 5.5664 -2.3936 -2.9500 -0.9883 0.0000 0.0000 0.0000 -12.4608 -5.8146 -0.5315 1.3230 7.2845 20.5611 1.4883 5.0788 -25.3638 8.1946 -16.2605 -53.2605 0.0000 0.0000 0.0000 0.0000 0.0000 0.0000 0.0000 0.0000 0.0000 -0.0000 -0.0000 0.0000 -0.0000 -0.0000 0.0000 -0.1835 0.9035 4.7067 0.5640 1.2199 -2.0460 0.5792 0.6199 -4.7720 -0.5077 -1.6147 -12.3383 3.6187 -2.9402 20.4196 0.9775 -1.0630 8.4487 -0.0000 0.0000 0.0000 -0.7235 12.0932 -27.6917 19.9584 -30.5922 5.5102 4.0197 10.5459 25.5871 0.0 0.0 0.0 -7.1250 0.0 0.0 -15.5009 5.1084 -14.6163 -0.0000 0.0000 0.0000 -1.7597 18.3631 27.611 -23.1136 -34.2128 -7.2021 -10.8391 21.0488 28.4225 0.0 0.0 0.0 7.1250 0.0 -0.0 21.8564 57.4696 -6.8943
-0.5602 18.6750 5.5636 -2.3683 -2.9177 -0.9661 0.0000 0.0000 0.0000 -12.4898 -5.8909 -0.5468 1.3221 7.2822 20.5541 1.4912 5.0723 -25.3812 8.1863 -16.2546 -53.2310 0.0000 0.0000 0.0000 0.0000 0.0000 0.0000 0.0000 0.0000 0.0000 -0.0000 -0.0000 0.0000 -0.0000 -0.0000 0.0000 -0.0914 0.9192 4.9933 0.4621 1.2441 -2.2822 0.4131 0.6275 -5.1776 -0.5030 -1.6738 -12.1795 3.6970 -3.0441 20.5183 0.9929 -1.1044 8.4568 -0.0000 -0.0000 0.0000 -0.5118 12.4881 -27.8946 20.0147 -30.66 5.5388 4.0116 10.4048 25.4988 0.0 0.0 0.0 -7.1250 0.0 0.0 -15.5060 5.194 -14.5955 -0.0000 -0.0000 0.0000 -1.5791 18.759 27.5276 -23.1518 -34.2544 -7.2236 -10.7923 21.0072 28.4189 0.0 0.0 0.0 7.1250 0.0 -0.0 21.9012 57.4563 -6.9023
-0.5609 18.6756 5.5603 -2.3411 -2.8931 -0.9388 0.0000 0.0000 0.0000 -12.5213 -5.9607 -0.5761 1.3227 7.2839 20.5591 1.4909 5.1048 -25.3973 8.1782 -16.2488 -53.2022 0.0000 0.0000 0.0000 0.0000 0.0000 0.0000 0.0000 0.0000 0.0000 -0.0000 -0.0000 0.0000 -0.0000 -0.0000 0.0000 -0.0706 0.9244 5.1255 0.4059 1.2507 -2.4015 0.3392 0.6290 -5.3761 -0.3302 -1.6560 -12.0892 3.5828 -3.0299 20.5120 0.9279 -1.0971 8.4334 0.0000 -0.0000 0.0000 -0.3622 12.7174 -28.0748 20.0723 -30.7293 5.5682 4.0792 10.2851 25.4918 0.0 0.0 0.0 -7.1250 0.0 0.0 -15.4660 5.1953 -14.5544 0.0000 -0.0000 0.0000 -1.4723 18.9606 27.4806 -23.1649 -34.2686 -7.2309 -11.347 21.2917 28.481 0.0 0.0 0.0 7.1250 0.0 -0.0 21.3817 57.6314 -6.8196
-0.5617 18.6756 5.5572 -2.3291 -2.8445 -0.9430 0.0000 0.0000 0.0000 -12.5250 -5.9686 -0.6053 1.3251 7.2901 20.5778 1.4838 5.1158 -25.3505 8.2012 -16.2653 -53.2843 0.0000 0.0000 0.0000 0.0000 0.0000 0.0000 0.0000 0.0000 0.0000 -0.0000 -0.0000 0.0000 -0.0000 -0.0000 0.0000 -0.0911 0.9085 5.1701 0.3939 1.2274 -2.4170 0.3396 0.6180 -5.4178 -0.2145 -1.6259 -12.0701 3.4823 -2.9874 20.4502 0.8795 -1.0794 8.4048 -0.0000 0.0000 0.0000 -0.3064 12.7542 -28.1232 20.0731 -30.7303 5.5686 4.1396 10.2717 25.5243 0.0 0.0 0.0 -7.1250 0.0 0.0 -15.4301 5.1591 -14.5288 -0.0000 0.0000 0.0000 -1.4234 19.0231 27.4372 -23.1754 -34.2801 -7.2369 -10.6767 20.9909 28.355 0.0 0.0 0.0 7.1250 0.0 -0.0 21.9735 57.3729 -6.8817
-0.5628 18.6752 5.5542 -2.3814 -2.8062 -0.9578 0.0000 0.0000 0.0000 -12.4584 -5.9844 -0.6159 1.3284 7.2989 20.6039 1.4805 5.1200 -25.3283 8.2236 -16.2813 -53.3641 0.0000 0.0000 0.0000 0.0000 0.0000 0.0000 0.0000 0.0000 0.0000 -0.0000 -0.0000 0.0000 -0.0000 -0.0000 0.0000 -0.0521 0.8930 5.2308 0.4076 1.2105 -2.4279 0.3325 0.6084 -5.4633 -0.1830 -1.6233 -12.0838 3.3916 -2.9694 20.4229 0.8457 -1.0779 8.3957 -0.0000 0.0000 0.0000 -0.2928 12.7489 -28.0813 20.0339 -30.6832 5.5487 4.2226 10.3239 25.6076 0.0 0.0 0.0 -7.1250 0.0 0.0 -15.3805 5.0718 -14.5047 -0.0000 0.0000 0.0000 -1.4043 19.0814 27.4334 -23.1955 -34.3019 -7.2482 -10.0387 20.6802 28.3122 0.0 0.0 0.0 7.1250 0.0 -0.0 22.5870 57.1997 -6.9914
-0.5638 18.6749 5.5519 -2.4728 -2.8053 -0.9718 0.0000 0.0000 0.0000 -12.3511 -5.9853 -0.6193 1.3317 7.3075 20.6296 1.4811 5.1109 -25.3276 8.2207 -16.2792 -53.3536 0.0000 0.0000 0.0000 0.0000 0.0000 0.0000 0.0000 0.0000 0.0000 -0.0000 -0.0000 0.0000 -0.0000 -0.0000 0.0000 0.0196 0.8911 5.2554 0.4428 1.2151 -2.4196 0.3281 0.6088 -5.4678 -0.1675 -1.6042 -12.0731 3.3033 -2.9224 20.3204 0.8186 -1.0650 8.3565 -0.0000 0.0000 0.0000 -0.2876 12.7122 -28.0651 19.9974 -30.6392 5.53 4.3822 10.2935 25.6317 0.0 0.0 0.0 -7.1250 0.0 0.0 -15.2858 5.0352 -14.4193 -0.0000 0.0000 0.0000 -1.4003 19.08 27.4272 -23.1864 -34.292 -7.2431 -10.5908 21.0296 28.5504 0.0 0.0 0.0 7.1250 0.0 -0.0 22.1977 57.5348 -7.0447
-0.5644 18.6747 5.5498 -2.5002 -2.7888 -0.9793 0.0000 0.0000 0.0000 -12.3125 -5.9746 -0.6395 1.3345 7.3150 20.6520 1.4836 5.0499 -25.3119 8.2014 -16.2654 -53.2848 0.0000 0.0000 0.0000 0.0000 0.0000 0.0000 0.0000 0.0000 0.0000 -0.0000 -0.0000 0.0000 -0.0000 -0.0000 0.0000 0.0277 0.8852 5.2573 0.4618 1.2088 -2.4058 0.3439 0.6058 -5.4548 -0.3068 -1.6023 -12.0612 3.4348 -2.9140 20.1934 0.8865 -1.0604 8.3154 -0.0000 0.0000 0.0000 -0.2846 12.6475 -28.045 19.9569 -30.5904 5.5094 4.4097 10.3256 25.5832 0.0 0.0 0.0 -7.1250 0.0 0.0 -15.2696 5.0797 -14.3895 -0.0000 0.0000 0.0000 -1.3985 19.0551 27.4119 -23.1700 -34.2741 -7.2338 -11.5128 21.6076 28.8757 0.0 0.0 0.0 7.1250 0.0 -0.0 21.4912 58.0325 -7.0669
-0.5647 18.6753 5.5472 -2.4689 -2.7653 -0.9759 0.0000 0.0000 0.0000 -12.3473 -6.0059 -0.6582 1.3363 7.3197 20.6659 1.4881 5.0150 -25.3268 8.1826 -16.2519 -53.2176 0.0000 0.0000 0.0000 0.0000 0.0000 0.0000 0.0000 0.0000 0.0000 -0.0000 -0.0000 0.0000 -0.0000 -0.0000 0.0000 -0.0201 0.8784 5.2631 0.4650 1.1962 -2.4036 0.3752 0.6013 -5.4567 -0.4493 -1.6156 -12.0598 3.5959 -2.9350 20.1268 0.9617 -1.0660 8.2978 0.0000 0.0000 0.0000 -0.2944 12.5871 -28.0065 19.9217 -30.5479 5.4915 4.3104 10.4186 25.5085 0.0 0.0 0.0 -7.1250 0.0 0.0 -15.3287 5.16 -14.4255 0.0000 0.0000 0.0000 -1.4254 19.0587 27.4403 -23.1762 -34.2809 -7.2373 -11.562 21.6345 28.8402 0.0 0.0 0.0 7.1250 0.0 -0.0 21.4154 58.0103 -7.0289
-0.5656 18.6763 5.5440 -2.4421 -2.7560 -0.9591 0.0000 0.0000 0.0000 -12.3719 -6.0327 -0.6886 1.3368 7.3209 20.6695 1.4875 5.0234 -25.3263 8.1848 -16.2535 -53.2254 0.0000 0.0000 0.0000 0.0000 0.0000 0.0000 0.0000 0.0000 0.0000 -0.0000 -0.0000 0.0000 -0.0000 -0.0000 0.0000 -0.0630 0.8830 5.2757 0.4698 1.1995 -2.4118 0.4037 0.6046 -5.4735 -0.4018 -1.5976 -12.0349 3.5385 -2.9048 20.0671 0.9379 -1.0550 8.2709 -0.0000 0.0000 0.0000 -0.2939 12.5447 -28.0206 19.9027 -30.5249 5.4818 4.2245 10.4325 25.4817 0.0 0.0 0.0 -7.1250 0.0 0.0 -15.3798 5.1931 -14.4674 -0.0000 0.0000 0.0000 -1.4717 19.0708 27.5068 -23.1819 -34.2871 -7.2405 -11.3144 21.4376 28.6586 0.0 0.0 0.0 7.1250 0.0 -0.0 21.5394 57.7888 -6.9558
-0.5679 18.6769 5.5400 -2.4618 -2.7357 -0.9288 0.0000 0.0000 0.0000 -12.3292 -6.0341 -0.7475 1.3370 7.3215 20.6713 1.4853 5.0140 -25.3046 8.1980 -16.2630 -53.2728 0.0000 0.0000 0.0000 0.0000 0.0000 0.0000 0.0000 0.0000 0.0000 -0.0000 -0.0000 0.0000 -0.0000 -0.0000 0.0000 -0.0705 0.8827 5.3058 0.4830 1.1994 -2.4364 0.4208 0.6051 -5.5170 -0.3253 -1.5784 -12.0194 3.4473 -2.8723 20.0228 0.8982 -1.0437 8.2500 -0.0000 -0.0000 0.0000 -0.2658 12.5449 -28.093 19.9162 -30.5413 5.4887 4.2056 10.3802 25.4937 0.0 0.0 0.0 -7.1250 0.0 0.0 -15.3909 5.183 -14.4818 -0.0000 -0.0000 0.0000 -1.5159 19.0829 27.6082 -23.1687 -34.2728 -7.2331 -12.0063 21.7287 28.6748 0.0 0.0 0.0 7.1250 0.0 -0.0 20.8444 57.9527 -6.8011
-0.5708 18.6770 5.5368 -2.5193 -2.7304 -0.9067 0.0000 0.0000 0.0000 -12.2490 -6.0463 -0.7828 1.3376 7.3230 20.6760 1.4921 4.9687 -25.3307 8.1834 -16.2525 -53.2207 0.0000 0.0000 0.0000 0.0000 0.0000 0.0000 0.0000 0.0000 0.0000 -0.0000 -0.0000 0.0000 -0.0000 -0.0000 0.0000 -0.0388 0.8851 5.3335 0.4992 1.2060 -2.4568 0.4186 0.6075 -5.5539 -0.2994 -1.5679 -12.0188 3.4317 -2.8588 19.9965 0.8901 -1.0373 8.2402 -0.0000 0.0000 0.0000 -0.2181 12.5714 -28.191 19.9551 -30.5882 5.5085 4.2401 10.3149 25.4944 0.0 0.0 0.0 -7.1250 0.0 0.0 -15.3704 5.1795 -14.462 -0.0000 0.0000 0.0000 -1.5401 19.1014 27.6889 -23.1694 -34.2735 -7.2334 -12.5539 21.9871 28.7171 0.0 0.0 0.0 7.1250 0.0 -0.0 20.3118 58.1107 -6.6957
-0.5735 18.6776 5.5348 -2.5593 -2.7363 -0.8860 0.0000 0.0000 0.0000 -12.1895 -6.0528 -0.8105 1.3383 7.3250 20.6817 1.4960 4.9227 -25.3344 8.1630 -16.2379 -53.1478 0.0000 0.0000 0.0000 0.0000 0.0000 0.0000 0.0000 0.0000 0.0000 -0.0000 -0.0000 0.0000 -0.0000 -0.0000 0.0000 -0.0182 0.8943 5.3338 0.5101 1.2205 -2.4674 0.4169 0.6142 -5.5652 -0.2338 -1.5402 -12.0319 3.3704 -2.8202 19.9852 0.8627 -1.0202 8.2361 0.0000 0.0000 0.0000 -0.1742 12.5857 -28.2774 19.9849 -30.6242 5.5237 4.265 10.2712 25.5331 0.0 0.0 0.0 -7.1250 0.0 0.0 -15.3556 5.14 -14.4588 0.0000 0.0000 0.0000 -1.5511 19.0911 27.7192 -23.1629 -34.2664 -7.2298 -12.4749 21.953 28.7625 0.0 0.0 0.0 7.1250 0.0 -0.0 20.4248 58.136 -6.7475
